<mxfile host="app.diagrams.net" modified="2023-03-08T08:43:25.572Z" agent="5.0 (Macintosh; Intel Mac OS X 10_15_7) AppleWebKit/537.36 (KHTML, like Gecko) Chrome/110.0.0.0 Safari/537.36" etag="VFK3JlMYZPNHWA-iexUL" version="20.8.21" type="github">
  <diagram name="第 1 页" id="9OgkaWjk8Vnta-lFfhUs">
    <mxGraphModel dx="1286" dy="803" grid="1" gridSize="10" guides="1" tooltips="1" connect="1" arrows="1" fold="1" page="1" pageScale="1" pageWidth="827" pageHeight="1169" math="0" shadow="0">
      <root>
        <mxCell id="0" />
        <mxCell id="1" parent="0" />
        <mxCell id="ThDRUaUQ9ZC6cObNtzou-2" value="CDN" style="ellipse;whiteSpace=wrap;html=1;" vertex="1" parent="1">
          <mxGeometry x="150" y="55" width="60" height="30" as="geometry" />
        </mxCell>
        <mxCell id="ThDRUaUQ9ZC6cObNtzou-3" value="CDN" style="ellipse;whiteSpace=wrap;html=1;" vertex="1" parent="1">
          <mxGeometry x="220" y="40" width="60" height="30" as="geometry" />
        </mxCell>
        <mxCell id="ThDRUaUQ9ZC6cObNtzou-4" value="CDN" style="ellipse;whiteSpace=wrap;html=1;" vertex="1" parent="1">
          <mxGeometry x="400" y="55" width="60" height="30" as="geometry" />
        </mxCell>
        <mxCell id="ThDRUaUQ9ZC6cObNtzou-5" value="CDN" style="ellipse;whiteSpace=wrap;html=1;" vertex="1" parent="1">
          <mxGeometry x="310" y="40" width="60" height="30" as="geometry" />
        </mxCell>
        <mxCell id="ThDRUaUQ9ZC6cObNtzou-6" value="" style="rounded=1;whiteSpace=wrap;html=1;" vertex="1" parent="1">
          <mxGeometry x="4" y="90" width="820" height="10" as="geometry" />
        </mxCell>
        <mxCell id="ThDRUaUQ9ZC6cObNtzou-7" value="Nginx" style="rounded=1;whiteSpace=wrap;html=1;" vertex="1" parent="1">
          <mxGeometry x="133" y="140" width="90" height="30" as="geometry" />
        </mxCell>
        <mxCell id="ThDRUaUQ9ZC6cObNtzou-8" value="负载均衡层" style="text;html=1;align=center;verticalAlign=middle;resizable=0;points=[];autosize=1;strokeColor=none;fillColor=none;" vertex="1" parent="1">
          <mxGeometry x="13" y="130" width="80" height="30" as="geometry" />
        </mxCell>
        <mxCell id="ThDRUaUQ9ZC6cObNtzou-9" value="前端" style="text;html=1;align=center;verticalAlign=middle;resizable=0;points=[];autosize=1;strokeColor=none;fillColor=none;" vertex="1" parent="1">
          <mxGeometry x="15" y="40" width="50" height="30" as="geometry" />
        </mxCell>
        <mxCell id="ThDRUaUQ9ZC6cObNtzou-10" value="SLB" style="rounded=1;whiteSpace=wrap;html=1;" vertex="1" parent="1">
          <mxGeometry x="299" y="140" width="90" height="30" as="geometry" />
        </mxCell>
        <mxCell id="ThDRUaUQ9ZC6cObNtzou-11" value="F5" style="rounded=1;whiteSpace=wrap;html=1;" vertex="1" parent="1">
          <mxGeometry x="459" y="140" width="90" height="30" as="geometry" />
        </mxCell>
        <mxCell id="ThDRUaUQ9ZC6cObNtzou-12" value="Keepalived" style="text;html=1;align=center;verticalAlign=middle;resizable=0;points=[];autosize=1;strokeColor=none;fillColor=none;" vertex="1" parent="1">
          <mxGeometry x="128" y="190" width="80" height="30" as="geometry" />
        </mxCell>
        <mxCell id="ThDRUaUQ9ZC6cObNtzou-13" value="LVS&lt;br&gt;" style="text;html=1;align=center;verticalAlign=middle;resizable=0;points=[];autosize=1;strokeColor=none;fillColor=none;" vertex="1" parent="1">
          <mxGeometry x="125" y="210" width="50" height="30" as="geometry" />
        </mxCell>
        <mxCell id="ThDRUaUQ9ZC6cObNtzou-14" value="HaProxy + Keepalived" style="text;html=1;align=center;verticalAlign=middle;resizable=0;points=[];autosize=1;strokeColor=none;fillColor=none;" vertex="1" parent="1">
          <mxGeometry x="13" y="170" width="140" height="30" as="geometry" />
        </mxCell>
        <mxCell id="ThDRUaUQ9ZC6cObNtzou-15" value="虚拟ip + ip地址的漂移" style="text;html=1;align=center;verticalAlign=middle;resizable=0;points=[];autosize=1;strokeColor=none;fillColor=none;" vertex="1" parent="1">
          <mxGeometry x="140" y="170" width="140" height="30" as="geometry" />
        </mxCell>
        <mxCell id="ThDRUaUQ9ZC6cObNtzou-16" value="DNS" style="text;html=1;align=center;verticalAlign=middle;resizable=0;points=[];autosize=1;strokeColor=none;fillColor=none;" vertex="1" parent="1">
          <mxGeometry x="13" y="100" width="50" height="30" as="geometry" />
        </mxCell>
        <mxCell id="ThDRUaUQ9ZC6cObNtzou-17" value="" style="rounded=1;whiteSpace=wrap;html=1;" vertex="1" parent="1">
          <mxGeometry x="4" y="240" width="820" height="10" as="geometry" />
        </mxCell>
        <mxCell id="ThDRUaUQ9ZC6cObNtzou-18" value="网关层" style="rounded=1;whiteSpace=wrap;html=1;" vertex="1" parent="1">
          <mxGeometry x="84" y="265" width="305" height="30" as="geometry" />
        </mxCell>
        <mxCell id="ThDRUaUQ9ZC6cObNtzou-19" value="认证鉴权" style="text;html=1;align=center;verticalAlign=middle;resizable=0;points=[];autosize=1;strokeColor=none;fillColor=none;" vertex="1" parent="1">
          <mxGeometry x="459" y="250" width="70" height="30" as="geometry" />
        </mxCell>
        <mxCell id="ThDRUaUQ9ZC6cObNtzou-20" value="黑白名单" style="text;html=1;align=center;verticalAlign=middle;resizable=0;points=[];autosize=1;strokeColor=none;fillColor=none;" vertex="1" parent="1">
          <mxGeometry x="459" y="267" width="70" height="30" as="geometry" />
        </mxCell>
        <mxCell id="ThDRUaUQ9ZC6cObNtzou-21" value="熔断 限流" style="text;html=1;align=center;verticalAlign=middle;resizable=0;points=[];autosize=1;strokeColor=none;fillColor=none;" vertex="1" parent="1">
          <mxGeometry x="459" y="283" width="70" height="30" as="geometry" />
        </mxCell>
        <mxCell id="ThDRUaUQ9ZC6cObNtzou-22" value="（灰度发布）金丝雀部署" style="text;html=1;align=center;verticalAlign=middle;resizable=0;points=[];autosize=1;strokeColor=none;fillColor=none;" vertex="1" parent="1">
          <mxGeometry x="445" y="300" width="160" height="30" as="geometry" />
        </mxCell>
        <mxCell id="ThDRUaUQ9ZC6cObNtzou-23" value="业务层" style="rounded=1;whiteSpace=wrap;html=1;" vertex="1" parent="1">
          <mxGeometry x="64" y="325" width="120" height="60" as="geometry" />
        </mxCell>
        <mxCell id="ThDRUaUQ9ZC6cObNtzou-24" value="业务层" style="rounded=1;whiteSpace=wrap;html=1;" vertex="1" parent="1">
          <mxGeometry x="299" y="330" width="120" height="60" as="geometry" />
        </mxCell>
        <mxCell id="ThDRUaUQ9ZC6cObNtzou-26" value="负载均衡" style="text;html=1;align=center;verticalAlign=middle;resizable=0;points=[];autosize=1;strokeColor=none;fillColor=none;" vertex="1" parent="1">
          <mxGeometry x="133" y="385" width="70" height="30" as="geometry" />
        </mxCell>
        <mxCell id="ThDRUaUQ9ZC6cObNtzou-27" value="JVM缓存" style="text;html=1;align=center;verticalAlign=middle;resizable=0;points=[];autosize=1;strokeColor=none;fillColor=none;" vertex="1" parent="1">
          <mxGeometry x="84" y="365" width="70" height="30" as="geometry" />
        </mxCell>
        <mxCell id="ThDRUaUQ9ZC6cObNtzou-28" value="redis" style="ellipse;whiteSpace=wrap;html=1;" vertex="1" parent="1">
          <mxGeometry x="69" y="415" width="80" height="80" as="geometry" />
        </mxCell>
        <mxCell id="ThDRUaUQ9ZC6cObNtzou-29" value="redis" style="ellipse;whiteSpace=wrap;html=1;" vertex="1" parent="1">
          <mxGeometry x="139" y="415" width="80" height="80" as="geometry" />
        </mxCell>
        <mxCell id="ThDRUaUQ9ZC6cObNtzou-30" value="redis" style="ellipse;whiteSpace=wrap;html=1;" vertex="1" parent="1">
          <mxGeometry x="99" y="475" width="80" height="80" as="geometry" />
        </mxCell>
        <mxCell id="ThDRUaUQ9ZC6cObNtzou-31" value="rocketmq" style="whiteSpace=wrap;html=1;" vertex="1" parent="1">
          <mxGeometry x="259" y="445" width="120" height="60" as="geometry" />
        </mxCell>
        <mxCell id="ThDRUaUQ9ZC6cObNtzou-33" value="es" style="ellipse;whiteSpace=wrap;html=1;" vertex="1" parent="1">
          <mxGeometry x="439" y="435" width="80" height="80" as="geometry" />
        </mxCell>
        <mxCell id="ThDRUaUQ9ZC6cObNtzou-34" value="es" style="ellipse;whiteSpace=wrap;html=1;" vertex="1" parent="1">
          <mxGeometry x="499" y="435" width="80" height="80" as="geometry" />
        </mxCell>
        <mxCell id="ThDRUaUQ9ZC6cObNtzou-35" value="es" style="ellipse;whiteSpace=wrap;html=1;" vertex="1" parent="1">
          <mxGeometry x="459" y="495" width="80" height="80" as="geometry" />
        </mxCell>
        <mxCell id="ThDRUaUQ9ZC6cObNtzou-36" value="redis 集群" style="text;html=1;align=center;verticalAlign=middle;resizable=0;points=[];autosize=1;strokeColor=none;fillColor=none;" vertex="1" parent="1">
          <mxGeometry x="19" y="485" width="80" height="30" as="geometry" />
        </mxCell>
        <mxCell id="ThDRUaUQ9ZC6cObNtzou-37" value="es 集群" style="text;html=1;align=center;verticalAlign=middle;resizable=0;points=[];autosize=1;strokeColor=none;fillColor=none;" vertex="1" parent="1">
          <mxGeometry x="399" y="500" width="60" height="30" as="geometry" />
        </mxCell>
        <mxCell id="ThDRUaUQ9ZC6cObNtzou-38" value="消息中间件集群" style="text;html=1;align=center;verticalAlign=middle;resizable=0;points=[];autosize=1;strokeColor=none;fillColor=none;" vertex="1" parent="1">
          <mxGeometry x="259" y="515" width="110" height="30" as="geometry" />
        </mxCell>
        <mxCell id="ThDRUaUQ9ZC6cObNtzou-39" value="mysql" style="text;html=1;align=center;verticalAlign=middle;resizable=0;points=[];autosize=1;strokeColor=none;fillColor=none;" vertex="1" parent="1">
          <mxGeometry x="64" y="605" width="50" height="30" as="geometry" />
        </mxCell>
        <mxCell id="ThDRUaUQ9ZC6cObNtzou-40" value="" style="shape=cylinder3;whiteSpace=wrap;html=1;boundedLbl=1;backgroundOutline=1;size=15;" vertex="1" parent="1">
          <mxGeometry x="149" y="575" width="60" height="60" as="geometry" />
        </mxCell>
        <mxCell id="ThDRUaUQ9ZC6cObNtzou-41" value="" style="shape=cylinder3;whiteSpace=wrap;html=1;boundedLbl=1;backgroundOutline=1;size=15;" vertex="1" parent="1">
          <mxGeometry x="143" y="645" width="60" height="60" as="geometry" />
        </mxCell>
        <mxCell id="ThDRUaUQ9ZC6cObNtzou-42" value="" style="shape=cylinder3;whiteSpace=wrap;html=1;boundedLbl=1;backgroundOutline=1;size=15;" vertex="1" parent="1">
          <mxGeometry x="220" y="570" width="60" height="60" as="geometry" />
        </mxCell>
        <mxCell id="ThDRUaUQ9ZC6cObNtzou-43" value="" style="shape=cylinder3;whiteSpace=wrap;html=1;boundedLbl=1;backgroundOutline=1;size=15;" vertex="1" parent="1">
          <mxGeometry x="223" y="645" width="60" height="60" as="geometry" />
        </mxCell>
        <mxCell id="ThDRUaUQ9ZC6cObNtzou-44" value="读写分离 - 分库分表" style="text;html=1;align=center;verticalAlign=middle;resizable=0;points=[];autosize=1;strokeColor=none;fillColor=none;" vertex="1" parent="1">
          <mxGeometry x="344" y="625" width="130" height="30" as="geometry" />
        </mxCell>
        <mxCell id="ThDRUaUQ9ZC6cObNtzou-45" value="分布式链路追踪 skywalking" style="whiteSpace=wrap;html=1;" vertex="1" parent="1">
          <mxGeometry x="599" y="515" width="120" height="60" as="geometry" />
        </mxCell>
        <mxCell id="ThDRUaUQ9ZC6cObNtzou-46" value="ELK 日志查询" style="whiteSpace=wrap;html=1;" vertex="1" parent="1">
          <mxGeometry x="599" y="595" width="120" height="50" as="geometry" />
        </mxCell>
        <mxCell id="ThDRUaUQ9ZC6cObNtzou-47" value="prothous + grfana&amp;nbsp; 系统监控报警" style="whiteSpace=wrap;html=1;" vertex="1" parent="1">
          <mxGeometry x="599" y="665" width="200" height="40" as="geometry" />
        </mxCell>
        <mxCell id="ThDRUaUQ9ZC6cObNtzou-48" value="devops : gitlab + jenkins&amp;nbsp;" style="whiteSpace=wrap;html=1;" vertex="1" parent="1">
          <mxGeometry x="19" y="715" width="780" height="30" as="geometry" />
        </mxCell>
        <mxCell id="ThDRUaUQ9ZC6cObNtzou-49" value="服务注册中心集群" style="whiteSpace=wrap;html=1;" vertex="1" parent="1">
          <mxGeometry x="599" y="355" width="110" height="30" as="geometry" />
        </mxCell>
        <mxCell id="ThDRUaUQ9ZC6cObNtzou-50" value="Nacos" style="text;html=1;align=center;verticalAlign=middle;resizable=0;points=[];autosize=1;strokeColor=none;fillColor=none;" vertex="1" parent="1">
          <mxGeometry x="719" y="340" width="60" height="30" as="geometry" />
        </mxCell>
        <mxCell id="ThDRUaUQ9ZC6cObNtzou-51" value="eurek" style="text;html=1;align=center;verticalAlign=middle;resizable=0;points=[];autosize=1;strokeColor=none;fillColor=none;" vertex="1" parent="1">
          <mxGeometry x="724" y="355" width="50" height="30" as="geometry" />
        </mxCell>
        <mxCell id="ThDRUaUQ9ZC6cObNtzou-52" value="zookeeper" style="text;html=1;align=center;verticalAlign=middle;resizable=0;points=[];autosize=1;strokeColor=none;fillColor=none;" vertex="1" parent="1">
          <mxGeometry x="719" y="395" width="80" height="30" as="geometry" />
        </mxCell>
        <mxCell id="ThDRUaUQ9ZC6cObNtzou-53" value="配置中心集群" style="whiteSpace=wrap;html=1;" vertex="1" parent="1">
          <mxGeometry x="599" y="440" width="110" height="40" as="geometry" />
        </mxCell>
        <mxCell id="ThDRUaUQ9ZC6cObNtzou-54" value="na co s" style="text;html=1;align=center;verticalAlign=middle;resizable=0;points=[];autosize=1;strokeColor=none;fillColor=none;" vertex="1" parent="1">
          <mxGeometry x="739" y="440" width="60" height="30" as="geometry" />
        </mxCell>
        <mxCell id="ThDRUaUQ9ZC6cObNtzou-55" value="apollo" style="text;html=1;align=center;verticalAlign=middle;resizable=0;points=[];autosize=1;strokeColor=none;fillColor=none;" vertex="1" parent="1">
          <mxGeometry x="739" y="460" width="60" height="30" as="geometry" />
        </mxCell>
        <mxCell id="ThDRUaUQ9ZC6cObNtzou-56" value="浏览器&amp;nbsp; 设置 expire" style="text;html=1;align=center;verticalAlign=middle;resizable=0;points=[];autosize=1;strokeColor=none;fillColor=none;" vertex="1" parent="1">
          <mxGeometry x="13" width="130" height="30" as="geometry" />
        </mxCell>
        <mxCell id="ThDRUaUQ9ZC6cObNtzou-57" value="内容分发网络" style="text;html=1;align=center;verticalAlign=middle;resizable=0;points=[];autosize=1;strokeColor=none;fillColor=none;" vertex="1" parent="1">
          <mxGeometry x="510" y="35" width="100" height="30" as="geometry" />
        </mxCell>
        <mxCell id="ThDRUaUQ9ZC6cObNtzou-58" value="静态资源缓存 +&amp;nbsp; 压缩" style="text;html=1;align=center;verticalAlign=middle;resizable=0;points=[];autosize=1;strokeColor=none;fillColor=none;" vertex="1" parent="1">
          <mxGeometry x="114" y="110" width="140" height="30" as="geometry" />
        </mxCell>
        <mxCell id="ThDRUaUQ9ZC6cObNtzou-59" value="ehcache&lt;br&gt;cafeiyin" style="text;html=1;align=center;verticalAlign=middle;resizable=0;points=[];autosize=1;strokeColor=none;fillColor=none;" vertex="1" parent="1">
          <mxGeometry y="340" width="70" height="40" as="geometry" />
        </mxCell>
        <mxCell id="ThDRUaUQ9ZC6cObNtzou-60" value="熔断&lt;br&gt;限流&lt;br&gt;降级" style="rounded=1;whiteSpace=wrap;html=1;" vertex="1" parent="1">
          <mxGeometry x="184" y="329" width="36" height="55" as="geometry" />
        </mxCell>
        <mxCell id="ThDRUaUQ9ZC6cObNtzou-61" value="hystrix" style="text;html=1;align=center;verticalAlign=middle;resizable=0;points=[];autosize=1;strokeColor=none;fillColor=none;" vertex="1" parent="1">
          <mxGeometry x="214" y="340" width="60" height="30" as="geometry" />
        </mxCell>
        <mxCell id="ThDRUaUQ9ZC6cObNtzou-62" value="硬件负载" style="rounded=1;whiteSpace=wrap;html=1;" vertex="1" parent="1">
          <mxGeometry x="619" y="150" width="80" height="30" as="geometry" />
        </mxCell>
        <mxCell id="ThDRUaUQ9ZC6cObNtzou-63" value="软件负载" style="rounded=1;whiteSpace=wrap;html=1;" vertex="1" parent="1">
          <mxGeometry x="699" y="150" width="80" height="30" as="geometry" />
        </mxCell>
        <mxCell id="ThDRUaUQ9ZC6cObNtzou-65" value="路由策略： 权重&amp;nbsp; 轮训&amp;nbsp; ip_hash url_hash fair" style="text;html=1;align=center;verticalAlign=middle;resizable=0;points=[];autosize=1;strokeColor=none;fillColor=none;" vertex="1" parent="1">
          <mxGeometry x="229" y="200" width="260" height="30" as="geometry" />
        </mxCell>
      </root>
    </mxGraphModel>
  </diagram>
</mxfile>
